<svg xmlns="http://www.w3.org/2000/svg" viewBox="0 0 640 512">
    <!-- Font Awesome Free 6.4.0 by @fontawesome - https://fontawesome.com License - https://fontawesome.com/license/free (Icons: CC BY 4.0, Fonts: SIL OFL 1.1, Code: MIT License) Copyright 2023 Fonticons, Inc. -->
    <path fill="#00E5FF" d="M384 96V224H256V96H384zm120 224H136V160h16V128H24c-13.3 0-24 10.7-24 24V440c0 13.3 10.7 24 24 24H616c13.3 0 24-10.7 24-24V152c0-13.3-10.7-24-24-24H520v32h16v160zM192 256H128v64h64v-64zm320 0H448v64h64v-64zM240 0C226.7 0 216 10.7 216 24V64H424V24c0-13.3-10.7-24-24-24H240z"/>
</svg>
